<svg width="1784.702" height="225.604" viewBox="0 0 1784.702 225.604" xmlns="http://www.w3.org/2000/svg"><g id="svgGroup" stroke-linecap="round" fill-rule="evenodd" font-size="9pt" stroke="#000" stroke-width="0.25mm" fill="#ffffff" style="stroke:#000;stroke-width:0.25mm;fill:#ffffff"><path d="M 365.1 222 L 338.1 222 L 338.1 66 L 364.2 66 L 364.2 92.1 Q 372.6 79.5 385.65 70.95 A 51.948 51.948 0 0 1 406.967 63.076 A 67.887 67.887 0 0 1 416.7 62.4 Q 436.861 62.4 449.236 71.673 A 39.78 39.78 0 0 1 456.15 78.3 Q 468.525 93.377 469.165 117.626 A 101.292 101.292 0 0 1 469.2 120.3 L 469.2 222 L 442.2 222 L 442.2 123.3 A 57.794 57.794 0 0 0 441.173 112.077 Q 439.343 102.834 434.25 96.3 A 25.738 25.738 0 0 0 415.42 86.24 A 36.184 36.184 0 0 0 412.2 86.1 A 39.365 39.365 0 0 0 391.652 91.992 A 52.06 52.06 0 0 0 386.1 95.85 Q 373.8 105.6 365.1 118.8 L 365.1 222 Z M 906.6 19.2 L 897.9 43.2 Q 888.6 38.7 878.85 36 A 69.044 69.044 0 0 0 869.658 34.154 Q 864.908 33.514 859.544 33.353 A 122.117 122.117 0 0 0 855.9 33.3 A 63.518 63.518 0 0 0 832.186 37.666 A 59.942 59.942 0 0 0 821.55 43.2 Q 806.4 53.1 797.7 71.7 Q 789 90.3 789 116.7 Q 789 141.9 797.55 160.8 A 77.032 77.032 0 0 0 808.309 178.284 A 64.269 64.269 0 0 0 821.25 190.2 A 59.109 59.109 0 0 0 854.685 200.69 A 71.682 71.682 0 0 0 855.9 200.7 Q 869.028 200.7 879.046 197.829 A 57.841 57.841 0 0 0 881.4 197.1 Q 892.2 193.5 902.4 187.8 L 911.1 211.5 A 112.683 112.683 0 0 1 897.616 217.633 A 143.682 143.682 0 0 1 885.75 221.55 Q 872.418 225.339 855.017 225.583 A 172.251 172.251 0 0 1 852.6 225.6 A 97.153 97.153 0 0 1 824.625 221.697 A 83.882 83.882 0 0 1 804.3 212.55 A 85.801 85.801 0 0 1 774.67 181.214 A 104.748 104.748 0 0 1 771.6 175.35 A 112.833 112.833 0 0 1 762.302 146.199 Q 759.975 133.402 759.902 118.841 A 188.449 188.449 0 0 1 759.9 117.9 Q 759.9 85.8 771.75 61.05 Q 783.6 36.3 805.35 22.35 Q 827.1 8.4 856.2 8.4 A 136.916 136.916 0 0 1 871.375 9.204 A 105.599 105.599 0 0 1 883.5 11.25 A 114.672 114.672 0 0 1 905.924 18.883 A 106.823 106.823 0 0 1 906.6 19.2 Z M 1609.8 222 L 1489.2 222 L 1489.2 200.7 L 1575.3 89.4 L 1491 89.4 L 1491 66 L 1608.3 66 L 1608.3 86.7 L 1522.5 198 L 1609.8 198 L 1609.8 222 Z M 642 155.1 L 532.8 155.1 A 72.264 72.264 0 0 0 536.217 170.175 Q 539.787 180.362 546.424 187.573 A 44.941 44.941 0 0 0 548.1 189.3 A 42.432 42.432 0 0 0 570.975 200.732 A 60.064 60.064 0 0 0 581.4 201.6 Q 594.9 201.6 605.7 198.75 Q 616.5 195.9 626.4 191.4 L 632.7 214.5 A 122.309 122.309 0 0 1 619.696 219.378 A 155.589 155.589 0 0 1 608.4 222.45 A 116.743 116.743 0 0 1 593.125 224.908 A 156.075 156.075 0 0 1 578.1 225.6 A 84.953 84.953 0 0 1 554.862 222.584 A 63.325 63.325 0 0 1 524.85 204.15 A 70.564 70.564 0 0 1 509.235 175.53 Q 505.2 161.536 505.2 144 A 106.076 106.076 0 0 1 507.698 120.535 A 86.52 86.52 0 0 1 514.05 102.15 Q 522.9 83.7 538.8 73.05 A 63.145 63.145 0 0 1 569.578 62.635 A 78.616 78.616 0 0 1 575.7 62.4 A 85.661 85.661 0 0 1 592.111 63.888 Q 604.001 66.209 613.05 72.15 Q 627.9 81.9 635.4 98.4 A 84.555 84.555 0 0 1 642.678 127.991 A 100.303 100.303 0 0 1 642.9 134.7 A 225.611 225.611 0 0 1 642.028 154.79 A 208.279 208.279 0 0 1 642 155.1 Z M 259.8 78.6 L 259.8 66 L 284.4 66 L 284.4 184.2 Q 284.4 193.619 288.189 197.611 A 8.896 8.896 0 0 0 289.95 199.05 Q 295.5 202.5 302.1 202.5 L 296.4 223.5 A 53.167 53.167 0 0 1 283.606 222.083 Q 266.695 217.883 261.91 201.24 A 40.771 40.771 0 0 1 261.6 200.1 A 63.921 63.921 0 0 1 252.271 210.378 A 85.495 85.495 0 0 1 242.85 217.65 Q 231.715 225.121 214.884 225.571 A 81.614 81.614 0 0 1 212.7 225.6 Q 193.2 225.6 177.3 215.7 A 68.841 68.841 0 0 1 155.061 193.12 A 83.768 83.768 0 0 1 151.95 187.65 A 81.683 81.683 0 0 1 144.06 163.823 A 109.932 109.932 0 0 1 142.5 144.9 A 99.426 99.426 0 0 1 145.49 120.094 A 83.904 83.904 0 0 1 151.95 102.9 Q 161.4 84.3 178.05 73.35 A 66.892 66.892 0 0 1 211.634 62.531 A 82.163 82.163 0 0 1 216.3 62.4 A 67.753 67.753 0 0 1 230.681 63.871 A 56.109 56.109 0 0 1 240.75 67.05 A 78.005 78.005 0 0 1 253.61 73.931 A 66.309 66.309 0 0 1 259.8 78.6 Z M 1424.4 78.6 L 1424.4 66 L 1449 66 L 1449 184.2 Q 1449 193.619 1452.789 197.611 A 8.896 8.896 0 0 0 1454.55 199.05 Q 1460.1 202.5 1466.7 202.5 L 1461 223.5 A 53.167 53.167 0 0 1 1448.206 222.083 Q 1431.295 217.883 1426.51 201.24 A 40.771 40.771 0 0 1 1426.2 200.1 A 63.921 63.921 0 0 1 1416.871 210.378 A 85.495 85.495 0 0 1 1407.45 217.65 Q 1396.315 225.121 1379.484 225.571 A 81.614 81.614 0 0 1 1377.3 225.6 Q 1357.8 225.6 1341.9 215.7 A 68.841 68.841 0 0 1 1319.661 193.12 A 83.768 83.768 0 0 1 1316.55 187.65 A 81.683 81.683 0 0 1 1308.66 163.823 A 109.932 109.932 0 0 1 1307.1 144.9 A 99.426 99.426 0 0 1 1310.09 120.094 A 83.904 83.904 0 0 1 1316.55 102.9 Q 1326 84.3 1342.65 73.35 A 66.892 66.892 0 0 1 1376.234 62.531 A 82.163 82.163 0 0 1 1380.9 62.4 A 67.753 67.753 0 0 1 1395.281 63.871 A 56.109 56.109 0 0 1 1405.35 67.05 A 78.005 78.005 0 0 1 1418.21 73.931 A 66.309 66.309 0 0 1 1424.4 78.6 Z M 0 208.2 L 13.8 186.3 A 50.575 50.575 0 0 0 26.011 195.647 A 58.29 58.29 0 0 0 28.2 196.8 A 39.342 39.342 0 0 0 39.825 200.58 A 35.823 35.823 0 0 0 45.3 201 A 32.222 32.222 0 0 0 55.822 199.357 A 26.809 26.809 0 0 0 68.1 190.65 A 29.847 29.847 0 0 0 72.796 182.088 Q 76.5 172.036 76.5 155.7 L 76.5 12 L 105 12 L 105 152.7 A 142.038 142.038 0 0 1 103.719 172.494 Q 100.473 195.487 89.007 207.976 A 43.618 43.618 0 0 1 88.8 208.2 A 53.789 53.789 0 0 1 53.423 225.256 A 74.041 74.041 0 0 1 46.2 225.6 A 70.328 70.328 0 0 1 21.967 221.451 A 67.214 67.214 0 0 1 20.25 220.8 A 68.482 68.482 0 0 1 8.484 214.853 A 54.55 54.55 0 0 1 0 208.2 Z M 1116 173.1 L 1116 0 L 1143 0 L 1143 170.4 Q 1143 180.122 1145.431 186.818 A 23.92 23.92 0 0 0 1149.75 194.4 Q 1156.5 202.2 1168.5 202.2 Q 1174.2 202.2 1179.75 200.85 Q 1184.498 199.695 1188.038 198.211 A 35.827 35.827 0 0 0 1189.2 197.7 L 1195.8 219.6 A 54.452 54.452 0 0 1 1190.992 221.451 Q 1188.603 222.251 1185.864 222.969 A 104.935 104.935 0 0 1 1182.45 223.8 Q 1174.5 225.6 1164.9 225.6 A 62.587 62.587 0 0 1 1150.229 223.939 A 52.633 52.633 0 0 1 1140 220.35 A 38.049 38.049 0 0 1 1124.026 206.054 A 47.568 47.568 0 0 1 1122.45 203.4 A 47.265 47.265 0 0 1 1118.041 191.842 Q 1116.702 186.409 1116.241 180.035 A 96.316 96.316 0 0 1 1116 173.1 Z M 1216.8 173.1 L 1216.8 0 L 1243.8 0 L 1243.8 170.4 Q 1243.8 180.122 1246.231 186.818 A 23.92 23.92 0 0 0 1250.55 194.4 Q 1257.3 202.2 1269.3 202.2 Q 1275 202.2 1280.55 200.85 Q 1285.298 199.695 1288.838 198.211 A 35.827 35.827 0 0 0 1290 197.7 L 1296.6 219.6 A 54.452 54.452 0 0 1 1291.792 221.451 Q 1289.403 222.251 1286.664 222.969 A 104.935 104.935 0 0 1 1283.25 223.8 Q 1275.3 225.6 1265.7 225.6 A 62.587 62.587 0 0 1 1251.029 223.939 A 52.633 52.633 0 0 1 1240.8 220.35 A 38.049 38.049 0 0 1 1224.826 206.054 A 47.568 47.568 0 0 1 1223.25 203.4 A 47.265 47.265 0 0 1 1218.841 191.842 Q 1217.502 186.409 1217.041 180.035 A 96.316 96.316 0 0 1 1216.8 173.1 Z M 977.884 221.582 A 81.643 81.643 0 0 0 1003.8 225.6 A 92.178 92.178 0 0 0 1010.624 225.351 A 75.771 75.771 0 0 0 1043.55 215.4 Q 1061.1 205.2 1071.3 186.75 A 78.765 78.765 0 0 0 1079.259 165.327 A 102.552 102.552 0 0 0 1081.5 143.4 A 103.626 103.626 0 0 0 1080.045 125.674 A 77.384 77.384 0 0 0 1071.15 100.35 Q 1060.8 82.2 1043.25 72.3 A 74.545 74.545 0 0 0 1029.326 66.219 A 83.213 83.213 0 0 0 1003.8 62.4 Q 981.9 62.4 964.2 72.3 Q 946.5 82.2 936.3 100.5 A 78.068 78.068 0 0 0 928.052 123.271 A 105.018 105.018 0 0 0 926.1 144 A 104.461 104.461 0 0 0 926.895 157.061 A 82.352 82.352 0 0 0 936.15 186.45 Q 946.2 204.9 963.9 215.25 A 73.677 73.677 0 0 0 977.884 221.582 Z M 1681.084 221.582 A 81.643 81.643 0 0 0 1707 225.6 A 92.178 92.178 0 0 0 1713.824 225.351 A 75.771 75.771 0 0 0 1746.75 215.4 Q 1764.3 205.2 1774.5 186.75 A 78.765 78.765 0 0 0 1782.459 165.327 A 102.552 102.552 0 0 0 1784.7 143.4 A 103.626 103.626 0 0 0 1783.245 125.674 A 77.384 77.384 0 0 0 1774.35 100.35 Q 1764 82.2 1746.45 72.3 A 74.545 74.545 0 0 0 1732.526 66.219 A 83.213 83.213 0 0 0 1707 62.4 Q 1685.1 62.4 1667.4 72.3 Q 1649.7 82.2 1639.5 100.5 A 78.068 78.068 0 0 0 1631.252 123.271 A 105.018 105.018 0 0 0 1629.3 144 A 104.461 104.461 0 0 0 1630.095 157.061 A 82.352 82.352 0 0 0 1639.35 186.45 Q 1649.4 204.9 1667.1 215.25 A 73.677 73.677 0 0 0 1681.084 221.582 Z M 1003.8 201.6 A 56.224 56.224 0 0 0 1019.478 199.527 A 42.002 42.002 0 0 0 1040.7 185.55 A 56.407 56.407 0 0 0 1052.158 161.28 A 81.314 81.314 0 0 0 1053.9 144 A 64.129 64.129 0 0 0 1050.226 122.141 A 60.042 60.042 0 0 0 1047.3 115.35 Q 1040.7 102.3 1029.45 94.35 Q 1018.2 86.4 1003.8 86.4 A 57.747 57.747 0 0 0 988.122 88.415 A 42.111 42.111 0 0 0 966.9 102 A 53.634 53.634 0 0 0 955.879 124.121 Q 953.904 132.094 953.719 141.45 A 98.609 98.609 0 0 0 953.7 143.4 Q 953.7 159 960.3 172.35 A 58.311 58.311 0 0 0 970.89 187.47 A 52.882 52.882 0 0 0 978.15 193.65 Q 989.4 201.6 1003.8 201.6 Z M 1707 201.6 A 56.224 56.224 0 0 0 1722.678 199.527 A 42.002 42.002 0 0 0 1743.9 185.55 A 56.407 56.407 0 0 0 1755.358 161.28 A 81.314 81.314 0 0 0 1757.1 144 A 64.129 64.129 0 0 0 1753.426 122.141 A 60.042 60.042 0 0 0 1750.5 115.35 Q 1743.9 102.3 1732.65 94.35 Q 1721.4 86.4 1707 86.4 A 57.747 57.747 0 0 0 1691.322 88.415 A 42.111 42.111 0 0 0 1670.1 102 A 53.634 53.634 0 0 0 1659.079 124.121 Q 1657.104 132.094 1656.919 141.45 A 98.609 98.609 0 0 0 1656.9 143.4 Q 1656.9 159 1663.5 172.35 A 58.311 58.311 0 0 0 1674.09 187.47 A 52.882 52.882 0 0 0 1681.35 193.65 Q 1692.6 201.6 1707 201.6 Z M 257.4 182.1 L 257.4 98.4 Q 249.3 92.7 239.55 89.25 Q 229.8 85.8 219 85.8 A 47.773 47.773 0 0 0 204.086 88.061 A 42.071 42.071 0 0 0 193.65 93.15 A 48.902 48.902 0 0 0 178.592 109.421 A 59.887 59.887 0 0 0 176.4 113.55 A 61.989 61.989 0 0 0 171.14 130.58 A 83.035 83.035 0 0 0 170.1 144 Q 170.1 160.8 176.4 173.85 Q 182.7 186.9 193.8 194.25 Q 204.9 201.6 218.7 201.6 Q 230.1 201.6 240.3 196.05 A 58.351 58.351 0 0 0 254.461 185.395 A 54.213 54.213 0 0 0 257.4 182.1 Z M 1422 182.1 L 1422 98.4 Q 1413.9 92.7 1404.15 89.25 Q 1394.4 85.8 1383.6 85.8 A 47.773 47.773 0 0 0 1368.686 88.061 A 42.071 42.071 0 0 0 1358.25 93.15 A 48.902 48.902 0 0 0 1343.192 109.421 A 59.887 59.887 0 0 0 1341 113.55 A 61.989 61.989 0 0 0 1335.74 130.58 A 83.035 83.035 0 0 0 1334.7 144 Q 1334.7 160.8 1341 173.85 Q 1347.3 186.9 1358.4 194.25 Q 1369.5 201.6 1383.3 201.6 Q 1394.7 201.6 1404.9 196.05 A 58.351 58.351 0 0 0 1419.061 185.395 A 54.213 54.213 0 0 0 1422 182.1 Z M 532.5 133.2 L 618 133.2 A 73.066 73.066 0 0 0 616.787 119.444 Q 614.282 106.388 606.6 98.1 A 37.465 37.465 0 0 0 585.718 86.773 A 55.185 55.185 0 0 0 575.1 85.8 A 40.741 40.741 0 0 0 559.765 88.605 A 37.572 37.572 0 0 0 546.3 97.95 A 45.495 45.495 0 0 0 537.478 112.017 Q 534.948 118.197 533.558 125.762 A 96.063 96.063 0 0 0 532.5 133.2 Z" vector-effect="non-scaling-stroke"/></g></svg>